<?xml version="1.0" encoding="UTF-8" standalone="no"?>
<!-- Created with Inkscape (http://www.inkscape.org/) -->

<svg
   xmlns:dc="http://purl.org/dc/elements/1.1/"
   xmlns:cc="http://creativecommons.org/ns#"
   xmlns:rdf="http://www.w3.org/1999/02/22-rdf-syntax-ns#"
   xmlns:svg="http://www.w3.org/2000/svg"
   xmlns="http://www.w3.org/2000/svg"
   xmlns:xlink="http://www.w3.org/1999/xlink"
   xmlns:sodipodi="http://sodipodi.sourceforge.net/DTD/sodipodi-0.dtd"
   xmlns:inkscape="http://www.inkscape.org/namespaces/inkscape"
   width="400"
   height="200"
   id="svg2"
   version="1.1"
   inkscape:version="0.48.3.1 r9886"
   sodipodi:docname="logo.svg">
  <defs
     id="defs4" />
  <sodipodi:namedview
     id="base"
     pagecolor="#ffffff"
     bordercolor="#666666"
     borderopacity="1.0"
     inkscape:pageopacity="0.0"
     inkscape:pageshadow="2"
     inkscape:zoom="1"
     inkscape:cx="199"
     inkscape:cy="150"
     inkscape:document-units="px"
     inkscape:current-layer="layer1"
     showgrid="false"
     inkscape:window-width="1366"
     inkscape:window-height="745"
     inkscape:window-x="0"
     inkscape:window-y="23"
     inkscape:window-maximized="0" />
  <metadata
     id="metadata7">
    <rdf:RDF>
      <cc:Work
         rdf:about="">
        <dc:format>image/svg+xml</dc:format>
        <dc:type
           rdf:resource="http://purl.org/dc/dcmitype/StillImage" />
        <dc:title></dc:title>
      </cc:Work>
    </rdf:RDF>
  </metadata>
  <g
     inkscape:label="Layer 1"
     inkscape:groupmode="layer"
     id="layer1"
     transform="translate(0,-852.36218)">
    <path
       sodipodi:type="star"
       style="fill:none;stroke:#5c3566;stroke-width:10.15260506;stroke-linecap:round;stroke-linejoin:round;stroke-miterlimit:4;stroke-opacity:1;stroke-dasharray:none;stroke-dashoffset:0"
       id="path2989"
       sodipodi:sides="6"
       sodipodi:cx="47"
       sodipodi:cy="85"
       sodipodi:r1="81.12336"
       sodipodi:r2="35.606972"
       sodipodi:arg1="0.52984907"
       sodipodi:arg2="1.0711164"
       inkscape:flatsided="false"
       inkscape:rounded="0"
       inkscape:randomized="0"
       d="M 117,126 64.060889,116.25352 46.492958,166.12178 28.464102,115.40192 -23.507039,125.12178 11.403213,84.148403 -22.999997,44.000002 29.939111,53.74648 47.507042,3.8782249 65.535898,54.598077 117.50704,44.878223 82.596787,85.851597 z"
       transform="matrix(0.6950659,0,0,0.89330338,71.831903,874.77597)" />
    <path
       sodipodi:type="inkscape:offset"
       inkscape:radius="7"
       inkscape:original="M 253.75 918.9375 C 252.22655 918.93755 251.03905 919.50005 250.21875 920.625 C 249.39843 921.72661 248.99999 923.33599 249 925.46875 L 249 966.40625 C 248.99999 968.32813 249.43749 969.76563 250.28125 970.75 C 251.12499 971.73437 252.27343 972.25 253.75 972.25 C 255.01561 972.25 256.1328 971.73437 257.09375 970.75 C 258.07811 969.74219 258.56248 968.32032 258.5625 966.46875 L 258.5625 958.84375 L 263.78125 953.9375 L 272.25 967.84375 C 273.3281 969.50781 274.17966 970.64844 274.8125 971.28125 C 275.44528 971.91406 276.32809 972.25 277.5 972.25 C 278.85934 972.25 279.9609 971.80469 280.78125 970.9375 C 281.62496 970.04688 282.06246 968.83594 282.0625 967.3125 C 282.06246 966.77344 281.89059 966.21094 281.5625 965.625 C 281.25777 965.01563 280.72653 964.14844 280 963 L 270.15625 947.53125 L 275.25 942.84375 C 277.85153 940.50003 279.15621 938.62503 279.15625 937.21875 C 279.15621 936.07035 278.76559 935.12504 277.96875 934.375 C 277.17184 933.6016 276.16403 933.21879 274.96875 933.21875 C 273.96091 933.21879 273.10935 933.48441 272.40625 934 C 271.7031 934.51566 270.67966 935.46879 269.34375 936.875 L 258.5625 948.1875 L 258.5625 924.90625 C 258.56248 922.93755 258.11717 921.47661 257.25 920.46875 C 256.3828 919.46099 255.22655 918.93755 253.75 918.9375 z M 292.59375 918.9375 C 291.14062 918.93755 289.99218 919.42193 289.125 920.40625 C 288.28124 921.39067 287.84375 922.85942 287.84375 924.78125 L 287.84375 966.40625 C 287.84375 968.28125 288.28906 969.71094 289.15625 970.71875 C 290.04687 971.72656 291.18749 972.25 292.59375 972.25 C 294.02343 972.25 295.17186 971.77344 296.0625 970.8125 C 296.97655 969.82813 297.43749 968.35157 297.4375 966.40625 L 297.4375 924.78125 C 297.43749 922.83599 297.01561 921.36724 296.125 920.40625 C 295.23436 919.42193 294.04686 918.93755 292.59375 918.9375 z M 192.40625 933.15625 C 188.63279 933.15629 185.46874 933.65629 182.9375 934.6875 C 180.40624 935.71879 178.53905 937.03128 177.34375 938.625 C 176.14843 940.21878 175.5625 941.87503 175.5625 943.5625 C 175.5625 944.64065 175.94531 945.51565 176.71875 946.21875 C 177.51562 946.89846 178.45312 947.25002 179.53125 947.25 C 180.72655 947.25002 181.49218 947.0469 181.84375 946.625 C 182.21874 946.17971 182.85155 945.26565 183.71875 943.90625 C 184.60936 942.5469 185.65624 941.52347 186.875 940.84375 C 188.11717 940.16409 189.96873 939.81253 192.40625 939.8125 C 195.24216 939.81253 197.10935 940.42972 198 941.625 C 198.91403 942.7969 199.41403 944.65628 199.53125 947.1875 C 197.5156 947.77346 195.6406 948.26565 193.90625 948.6875 C 192.19529 949.08596 190.13279 949.53908 187.71875 950.03125 C 185.30467 950.52346 183.79686 950.82815 183.1875 950.96875 C 180.28124 951.60158 178.00781 952.83596 176.34375 954.6875 C 174.67968 956.53908 173.84375 958.78126 173.84375 961.40625 C 173.84375 963.35157 174.33593 965.14844 175.34375 966.8125 C 176.35156 968.47657 177.77343 969.82813 179.625 970.8125 C 181.49999 971.77344 183.6953 972.25 186.15625 972.25 C 188.85154 972.25 191.24998 971.79687 193.40625 970.90625 C 195.58591 969.99219 197.83591 968.61719 200.15625 966.8125 C 201.23434 968.57032 202.25778 969.9375 203.21875 970.875 C 204.17965 971.78906 205.17184 972.25 206.15625 972.25 C 207.32809 972.25 208.36715 971.82812 209.28125 971.03125 C 210.21871 970.21094 210.68746 969.32813 210.6875 968.34375 C 210.68746 967.78125 210.39059 966.50782 209.78125 964.5625 C 209.19527 962.59376 208.87496 960.71095 208.875 958.90625 C 208.8984 956.98439 208.93746 955.25783 208.9375 953.6875 C 208.9609 952.11721 208.96871 950.18752 208.96875 947.9375 C 208.96871 944.37503 208.44528 941.53128 207.4375 939.375 C 206.45309 937.21878 204.75778 935.64066 202.34375 934.65625 C 199.92966 933.64848 196.62497 933.15629 192.40625 933.15625 z M 324.40625 933.15625 C 321.52342 933.15629 318.89842 933.62504 316.53125 934.5625 C 314.16405 935.4766 312.17968 936.79691 310.5625 938.53125 C 308.94531 940.26566 307.71874 942.34378 306.875 944.78125 C 306.03125 947.19534 305.59375 949.82033 305.59375 952.65625 C 305.59375 958.6797 307.32812 963.45313 310.75 966.96875 C 314.17186 970.48438 318.96092 972.25 325.125 972.25 C 327.82029 972.25 330.18747 971.89062 332.25 971.1875 C 334.33591 970.48438 336.04684 969.61719 337.40625 968.5625 C 338.78903 967.48438 339.82028 966.36719 340.5 965.21875 C 341.17965 964.04688 341.53121 963.02345 341.53125 962.15625 C 341.53121 961.17189 341.23434 960.41407 340.625 959.875 C 340.01559 959.33595 339.20309 959.06251 338.21875 959.0625 C 337.30465 959.06251 336.61715 959.26564 336.125 959.6875 C 334.92966 960.81251 333.93747 961.71876 333.1875 962.375 C 332.43747 963.03126 331.6406 963.63282 330.75 964.21875 C 329.85935 964.78126 328.92966 965.21876 327.96875 965.5 C 327.03123 965.75782 325.99216 965.87501 324.84375 965.875 C 323.13279 965.87501 321.55467 965.46876 320.125 964.625 C 318.71873 963.78126 317.58592 962.50782 316.71875 960.84375 C 315.87499 959.1797 315.42967 957.27345 315.40625 955.09375 L 334.1875 955.09375 C 336.69528 955.09377 338.6484 954.73439 340.03125 954.03125 C 341.41402 953.30471 342.09371 951.72658 342.09375 949.3125 C 342.09371 946.71096 341.42965 944.16409 340.09375 941.65625 C 338.75778 939.14847 336.72653 937.1016 334.03125 935.53125 C 331.35935 933.93754 328.15622 933.15629 324.40625 933.15625 z M 105.15625 933.21875 C 101.99217 933.21879 99.281238 933.71879 97.03125 934.75 C 94.80468 935.75785 93.117181 937.13285 91.96875 938.84375 C 90.820309 940.55472 90.249997 942.3594 90.25 944.28125 C 90.249997 946.43752 90.851559 948.27346 92.09375 949.75 C 93.335931 951.22658 94.999992 952.39846 97.0625 953.3125 C 99.148425 954.20314 101.85155 955.08595 105.15625 955.90625 C 108.08592 956.60939 110.17185 957.32033 111.4375 958.09375 C 112.72654 958.8672 113.37497 960.12501 113.375 961.8125 C 113.37497 962.91407 112.74216 963.88282 111.5 964.75 C 110.28123 965.59376 108.7031 966.03126 106.78125 966.03125 C 104.41404 966.03126 102.53905 965.59376 101.15625 964.75 C 99.796862 963.90626 98.640613 962.6172 97.65625 960.90625 C 97.164052 960.01564 96.632803 959.33595 96.09375 958.84375 C 95.554679 958.35158 94.789055 958.09376 93.78125 958.09375 C 92.632807 958.09376 91.687495 958.46876 90.9375 959.21875 C 90.187497 959.96876 89.812497 960.88282 89.8125 961.9375 C 89.812497 963.53126 90.390621 965.12501 91.5625 966.71875 C 92.734369 968.28907 94.570305 969.60156 97.03125 970.65625 C 99.492175 971.71094 102.42967 972.25 105.875 972.25 C 109.48435 972.25 112.55466 971.77344 115.0625 970.8125 C 117.59372 969.82813 119.49215 968.375 120.78125 966.5 C 122.07028 964.60157 122.71871 962.33595 122.71875 959.6875 C 122.71871 957.9297 122.23434 956.35939 121.25 955 C 120.28903 953.61721 118.86716 952.44533 116.96875 951.4375 C 115.09372 950.42971 112.66404 949.53908 109.6875 948.8125 C 107.17967 948.20315 105.21092 947.70315 103.78125 947.28125 C 102.35155 946.8594 101.21874 946.32034 100.375 945.6875 C 99.531237 945.03128 99.093738 944.19534 99.09375 943.1875 C 99.093738 942.08597 99.66405 941.19534 100.8125 940.46875 C 101.96092 939.71878 103.42186 939.34378 105.15625 939.34375 C 106.84373 939.34378 108.17185 939.62503 109.15625 940.1875 C 110.1406 940.75003 110.99216 941.50003 111.71875 942.4375 C 112.60935 943.56253 113.38279 944.40628 114.0625 944.96875 C 114.7656 945.53128 115.60935 945.81253 116.59375 945.8125 C 117.95309 945.81253 118.99216 945.45315 119.71875 944.75 C 120.46872 944.0469 120.84372 943.13284 120.84375 942.03125 C 120.84372 941.02347 120.51559 939.99222 119.8125 938.9375 C 119.13278 937.88285 118.11716 936.92972 116.78125 936.0625 C 115.46872 935.19535 113.80466 934.51566 111.8125 934 C 109.84373 933.48441 107.6406 933.21879 105.15625 933.21875 z M 135.15625 933.21875 C 133.77343 933.21879 132.70312 933.67973 131.90625 934.59375 C 131.10937 935.48441 130.6875 936.82816 130.6875 938.65625 L 130.6875 980.09375 C 130.6875 982.17968 131.00781 983.73436 131.59375 984.8125 C 132.17968 985.91405 133.35156 986.46873 135.15625 986.46875 C 138.22655 986.46873 139.78124 984.37499 139.78125 980.15625 L 139.78125 965.75 C 141.46873 967.88282 143.24217 969.49219 145.09375 970.59375 C 146.96873 971.69531 149.25779 972.25 152 972.25 C 154.27341 972.25 156.40622 971.79687 158.375 970.90625 C 160.36715 969.99219 162.07809 968.69532 163.53125 967.03125 C 164.98434 965.34376 166.11715 963.27345 166.9375 960.8125 C 167.78121 958.32814 168.21871 955.60939 168.21875 952.65625 C 168.21871 948.64846 167.48433 945.17971 166.03125 942.25 C 164.60152 939.32034 162.64059 937.08597 160.15625 935.5625 C 157.67184 934.0391 154.9531 933.28129 152 933.28125 C 149.53904 933.28129 147.35154 933.82035 145.40625 934.875 C 143.46092 935.90629 141.58592 937.52347 139.78125 939.75 L 139.78125 938.59375 C 139.78124 936.85941 139.33592 935.5391 138.46875 934.625 C 137.62499 933.68754 136.51561 933.21879 135.15625 933.21875 z M 223.28125 933.21875 C 220.16406 933.21879 218.59375 935.37504 218.59375 939.6875 L 218.59375 966.40625 C 218.59375 968.32813 219.04687 969.76563 219.9375 970.75 C 220.82812 971.73437 221.96093 972.25 223.34375 972.25 C 224.74999 972.25 225.89843 971.77344 226.8125 970.8125 C 227.72655 969.82813 228.18749 968.35157 228.1875 966.40625 L 228.1875 958.375 C 228.18749 955.4922 228.28124 953.05471 228.46875 951.0625 C 228.65624 949.0469 229.0078 947.32815 229.5 945.875 C 229.99217 944.4219 230.67186 943.32034 231.5625 942.59375 C 232.45311 941.84378 233.59373 941.46878 235 941.46875 C 236.03123 941.46878 237.22654 941.71097 238.5625 942.15625 C 239.92185 942.57815 240.77341 942.78128 241.125 942.78125 C 242.06247 942.78128 242.92185 942.40628 243.71875 941.65625 C 244.53903 940.88284 244.96872 939.92191 244.96875 938.75 C 244.96872 937.08597 244.02341 935.7266 242.125 934.71875 C 240.22654 933.71098 238.2656 933.21879 236.25 933.21875 C 234.23435 933.21879 232.59373 933.71098 231.375 934.71875 C 230.17967 935.7266 229.02342 937.21878 227.875 939.1875 C 227.80467 937.21878 227.42186 935.7266 226.71875 934.71875 C 226.01561 933.71098 224.87499 933.21879 223.28125 933.21875 z M 324.09375 939.8125 C 326.60154 939.81253 328.63279 940.64066 330.15625 942.28125 C 331.7031 943.89846 332.57809 946.34378 332.8125 949.625 L 315.40625 949.625 C 315.73436 946.39065 316.66405 943.95315 318.1875 942.3125 C 319.73436 940.64847 321.70311 939.81253 324.09375 939.8125 z M 149.65625 940.375 C 151.32029 940.37503 152.8281 940.89066 154.1875 941.875 C 155.57028 942.83597 156.63278 944.2344 157.40625 946.0625 C 158.17966 947.86721 158.59372 950.03127 158.59375 952.5625 C 158.59372 955.18752 158.16403 957.4297 157.34375 959.28125 C 156.52341 961.13282 155.4531 962.50001 154.09375 963.4375 C 152.73435 964.35157 151.24997 964.81251 149.65625 964.8125 C 146.98435 964.81251 144.74217 963.76563 142.9375 961.65625 C 141.1328 959.52345 140.21874 956.53908 140.21875 952.71875 C 140.21874 948.66409 141.1328 945.61721 142.9375 943.53125 C 144.76561 941.44534 147.00779 940.37503 149.65625 940.375 z M 199.53125 952.9375 L 199.53125 954.3125 C 199.53122 957.64064 199.11716 960.01564 198.25 961.46875 C 197.49997 962.78126 196.30466 963.87501 194.6875 964.71875 C 193.09373 965.53907 191.33592 965.93751 189.4375 965.9375 C 187.65623 965.93751 186.22655 965.44532 185.125 964.4375 C 184.02342 963.40626 183.46874 962.17188 183.46875 960.71875 C 183.46874 959.31251 183.93749 958.21095 184.875 957.4375 C 185.81249 956.64064 186.81248 956.10158 187.84375 955.84375 C 188.87498 955.56252 190.70311 955.15627 193.375 954.59375 C 196.07029 954.00783 198.12497 953.45314 199.53125 952.9375 z "
       xlink:href="#text2985"
       style="font-size:72px;font-style:normal;font-variant:normal;font-weight:normal;font-stretch:normal;text-align:start;line-height:125%;letter-spacing:0px;word-spacing:0px;text-anchor:start;fill:#ffffff;fill-opacity:1;stroke:none;font-family:Arial Rounded MT Bold;-inkscape-font-specification:Arial Rounded MT Bold"
       id="path3760"
       inkscape:href="#text2985"
       d="m 253.75,909.9375 c -3.21935,1.1e-4 -7.0516,1.7156 -9.125,4.5 -0.0174,0.0234 -0.0453,0.039 -0.0625,0.0625 -2.08544,2.83489 -2.56251,5.98481 -2.5625,8.96875 l 0,1.75 c -1.88033,-0.59387 -3.79767,-0.99996 -5.75,-1 -2.35726,5e-5 -4.86112,0.475 -7.125,1.65625 -1.90206,-1.06636 -4.03028,-1.6562 -5.84375,-1.65625 -3.17261,4e-5 -7.10508,1.62985 -9.1875,4.5 -0.80139,1.10453 -1.27526,2.2546 -1.65625,3.40625 -1.84072,-2.63091 -4.47345,-4.73573 -7.40625,-5.9375 -0.009,-0.004 -0.022,0.004 -0.0312,0 -3.7546,-1.56127 -7.84231,-2.0312 -12.59375,-2.03125 -4.39177,5e-5 -8.43838,0.56059 -12.125,2.0625 -3.33919,1.36046 -6.3433,3.30151 -8.53125,6.21875 -0.48603,0.64804 -0.76578,1.43278 -1.15625,2.15625 -1.80995,-2.77245 -3.97574,-5.27958 -6.78125,-7 -3.54258,-2.17225 -7.66192,-3.31244 -11.8125,-3.3125 -3.42579,6e-5 -6.81656,0.80177 -9.78125,2.375 -2.05151,-1.54148 -4.69713,-2.43743 -7.0625,-2.4375 -2.91143,8e-5 -6.39056,1.38258 -8.46875,3.71875 -0.006,0.007 0.006,0.0246 0,0.0312 -0.0146,0.0165 -0.048,0.0146 -0.0625,0.0312 -1.0073,1.14485 -1.66562,2.40632 -2.125,3.71875 -1.15561,-1.36754 -2.44391,-2.56717 -3.875,-3.5 -0.012,-0.008 -0.0193,-0.0234 -0.0312,-0.0312 -2.16104,-1.42056 -4.50337,-2.32028 -7,-2.96875 -0.01,-0.003 -0.0215,0.003 -0.0312,0 -2.6284,-0.68527 -5.43404,-0.99995 -8.40625,-1 -3.89102,5e-5 -7.600499,0.6041 -11,2.15625 -0.0091,0.004 -0.02212,-0.004 -0.03125,0 -3.185193,1.44648 -6.024038,3.66532 -7.96875,6.5625 -1.820201,2.71177 -2.906255,6.03705 -2.90625,9.34375 -5e-6,3.33781 1.081388,6.88348 3.28125,9.65625 -0.158258,0.13783 -0.384325,0.19683 -0.53125,0.34375 -1.935845,1.93586 -3.187508,4.94229 -3.1875,7.65625 -6e-6,3.28657 1.284617,6.4346 3.125,8.9375 a 7.0007,7.0007 0 0 0 0,0.0312 c 2.149626,2.88053 5.108766,4.80108 8.34375,6.1875 3.520951,1.50899 7.41827,2.15625 11.59375,2.15625 4.22551,0 8.11918,-0.53896 11.6875,-1.90625 a 7.0007,7.0007 0 0 0 0.0312,0 c 2.28206,-0.88747 4.29782,-2.26866 6.09375,-3.875 l 0,6.625 c 0,2.77945 0.32521,5.40282 1.71875,8 0.0109,0.0205 0.0202,0.0421 0.0312,0.0625 1.96377,3.61566 6.49793,5.31246 9.71875,5.3125 3.12632,-2e-5 7.00391,-1.59469 9.09375,-4.4375 2.08984,-2.84281 2.53124,-5.90575 2.53125,-8.875 l 0,-1.5 c 1.69452,0.39 3.45004,0.59375 5.21875,0.59375 3.20356,0 6.36387,-0.66315 9.25,-1.96875 a 7.0007,7.0007 0 0 0 0.0312,0 c 2.89239,-1.32712 5.47273,-3.29896 7.53125,-5.65625 a 7.0007,7.0007 0 0 0 0.0312,-0.0312 c 0.25495,-0.29607 0.41756,-0.65992 0.65625,-0.96875 1.64655,2.63238 4.03211,4.88022 6.84375,6.375 a 7.0007,7.0007 0 0 0 0.0937,0.0312 c 3.01267,1.544 6.35411,2.21875 9.71875,2.21875 3.47985,0 6.86272,-0.605 9.9375,-1.875 a 7.0007,7.0007 0 0 0 0.0312,0 c 0.85338,-0.35787 1.67141,-0.84084 2.5,-1.28125 1.84791,1.68921 4.46583,3.15625 7.53125,3.15625 2.85191,0 5.74652,-1.2182 7.71875,-2.9375 a 7.0007,7.0007 0 0 0 0.0312,0 c 0.28036,-0.24533 0.47849,-0.70178 0.75,-1 0.0352,0.0401 0.0578,0.0852 0.0937,0.125 2.05593,2.27234 5.47081,3.8125 8.59375,3.8125 2.98772,0 6.39574,-1.37999 8.53125,-3.625 a 7.0007,7.0007 0 0 0 0.0625,-0.0625 c 2.49064,-2.68225 3.24998,-6.10519 3.25,-9.15625 l 0,-8.03125 c -1e-5,-2.73102 0.092,-4.97767 0.25,-6.65625 0.12241,-1.31595 0.33586,-2.21122 0.5625,-3 0.17565,0.0449 0.12027,0.0193 0.34375,0.0937 a 7.0007,7.0007 0 0 0 0.15625,0.0312 c 1.54228,0.47868 1.57629,0.93776 4.625,0.9375 0.29973,10e-6 0.57642,-0.15783 0.875,-0.1875 l 0,16.8125 c -2e-5,2.98423 0.71164,6.273 2.96875,8.90625 2.10025,2.4503 5.67504,3.9375 8.78125,3.9375 3.15793,0 6.3097,-1.58298 8.3125,-3.625 l 0.0312,0.0312 c 0.006,-0.006 -0.006,-0.0252 0,-0.0312 1.69298,-1.74156 2.51348,-3.94696 2.96875,-6.15625 l 1.21875,2.03125 a 7.0007,7.0007 0 0 0 0.0937,0.15625 c 1.19901,1.85069 2.11335,3.17591 3.5,4.5625 2.0587,2.0588 5.11534,3.03125 7.625,3.03125 2.57499,0 5.46705,-1.02218 7.59375,-2.84375 2.06965,1.71044 4.88059,2.84375 7.5,2.84375 2.98524,0 6.44812,-1.37251 8.59375,-3.6875 1.64927,-1.77615 2.36943,-3.8622 2.78125,-5.96875 0.57534,0.76205 1.07852,1.56013 1.75,2.25 4.8817,5.01547 11.90546,7.40625 19.40625,7.40625 3.31753,0 6.45371,-0.44163 9.375,-1.4375 2.63888,-0.88952 5.04887,-2.05951 7.1875,-3.71875 a 7.0007,7.0007 0 0 0 0.0312,0 c 1.90113,-1.48226 3.56562,-3.2058 4.8125,-5.3125 a 7.0007,7.0007 0 0 0 0.0312,-0.0625 c 1.04144,-1.79568 1.96862,-3.8037 1.96875,-6.5625 -7e-5,-1.66802 -0.56416,-3.71792 -1.625,-5.46875 1.47696,-2.31736 2.18746,-5.05729 2.1875,-7.375 -6e-5,-3.79267 -1.00458,-7.54356 -2.8125,-10.9375 -1.96339,-3.68553 -5.03016,-6.71388 -8.65625,-8.84375 -0.0254,-0.0149 -0.037,-0.0477 -0.0625,-0.0625 l 0,0.0312 c -3.9079,-2.3137 -8.45819,-3.3437 -13.15625,-3.34375 -3.63117,5e-5 -7.14249,0.61827 -10.40625,1.90625 -0.009,0.004 -0.0219,-0.004 -0.0312,0 -3.23832,1.25693 -6.18423,3.17045 -8.53125,5.6875 -0.38065,0.40824 -0.65061,0.90899 -1,1.34375 l 0,-10.3125 c -2e-5,-2.93323 -0.61855,-6.31375 -3.125,-9.0625 -0.0195,-0.0216 -0.0427,-0.0411 -0.0625,-0.0625 -2.20442,-2.39166 -5.67441,-3.71865 -8.65625,-3.71875 -3.00857,10e-5 -6.57812,1.41396 -8.71875,3.84375 a 7.0007,7.0007 0 0 0 -0.0625,0.0625 c -2.3046,2.68879 -2.96875,5.95334 -2.96875,8.9375 l 0,3.3125 c -1.84751,-1.10852 -3.90958,-1.87493 -5.875,-1.875 -2.2376,9e-5 -4.7354,0.69351 -6.6875,2.125 -0.95776,0.70238 -1.82677,1.64141 -2.71875,2.53125 l 0,-5.96875 c -3e-5,-3.02424 -0.7243,-6.35509 -3,-9 -2.09208,-2.43118 -5.68173,-3.96864 -8.8125,-3.96875 z m 27.09375,35.1875 0,4.15625 -1.625,-2.5625 0.71875,-0.6875 L 280,946 l 0,-0.0312 c 0.30592,-0.2749 0.54142,-0.57464 0.84375,-0.84375 z m -131.1875,0.25 c 0.44022,0.0589 0.18794,-0.0852 0.53125,0.25 0.14931,0.10376 0.405,0.26698 0.78125,1.15625 a 7.0007,7.0007 0 0 0 0,0.0312 c 0.33166,0.77391 0.62498,1.9821 0.625,3.75 -2e-5,1.86118 -0.31699,3.10921 -0.65625,3.875 -0.39928,0.9012 -0.59411,1.07824 -0.75,1.1875 -0.016,0.0108 -0.017,-0.01 -0.0312,0 -0.25904,0.17287 -0.26878,0.1875 -0.5,0.1875 -0.82335,0 -0.74181,0.0546 -1.375,-0.6875 -0.006,-0.008 -0.0249,-0.0235 -0.0312,-0.0312 -0.47398,-0.57246 -1.03126,-1.70723 -1.03125,-4.375 -1e-5,-2.95961 0.60291,-4.12694 0.96875,-4.5625 0.0161,-0.0184 0.0159,-0.0137 0.0312,-0.0312 0.69154,-0.78785 0.69149,-0.74999 1.4375,-0.75 z" />
    <text
       xml:space="preserve"
       style="font-size:72px;font-style:normal;font-variant:normal;font-weight:normal;font-stretch:normal;text-align:start;line-height:125%;letter-spacing:0px;word-spacing:0px;text-anchor:start;fill:#5c3566;fill-opacity:1;stroke:none;font-family:Arial Rounded MT Bold;-inkscape-font-specification:Arial Rounded MT Bold"
       x="86.859383"
       y="971.36218"
       id="text2985"
       sodipodi:linespacing="125%"><tspan
         sodipodi:role="line"
         id="tspan2987"
         x="86.859383"
         y="971.36218">sparkle</tspan></text>
  </g>
</svg>
